<svg width="19" height="24" viewBox="0 0 19 24" fill="none" xmlns="http://www.w3.org/2000/svg">
<path d="M4.44199 5.23365C5.09758 3.7294 5.75987 2.20977 7.16338 1.36018C8.84632 0.341438 10.8717 -0.405531 12.7293 0.242011C14.6738 0.919832 15.7871 2.82443 16.683 4.67857C17.67 6.72132 18.547 8.90177 17.9744 11.097C17.3153 13.6241 15.9645 16.4513 13.439 17.1161C11.4445 17.6412 9.66635 16.2555 7.96129 14.9268C7.56808 14.6204 7.17877 14.3171 6.79158 14.0408C5.29797 12.9753 3.89078 11.7354 3.41336 9.96387C3.01278 8.47745 3.6511 7.02943 4.27547 5.61309C4.32633 5.49771 4.3771 5.38253 4.42721 5.26757L4.44199 5.23365Z" fill="#464646"/>
<path d="M0.267961 17.6163C0.991244 16.253 2.67914 15.1768 4.35503 15.106C5.34861 15.064 5.99255 15.6915 6.65536 16.3373C7.01369 16.6865 7.37754 17.041 7.80514 17.298C8.1734 17.5194 8.62689 17.6641 9.07318 17.8064C9.89456 18.0685 10.6915 18.3227 10.8878 19.033C11.1447 19.9623 10.3152 20.8323 9.54159 21.6438C9.39953 21.7928 9.25935 21.9398 9.12813 22.0849C8.4172 22.8708 7.60201 23.5861 6.51941 23.8621C5.42777 24.1403 4.31879 23.9766 3.34456 23.5591C2.29278 23.1083 1.45469 22.4182 0.971148 21.4842C0.952454 21.4481 0.933653 21.4119 0.914788 21.3755C0.297316 20.1852 -0.390973 18.8583 0.267961 17.6163Z" fill="#464646"/>
</svg>
